<svg width="107" height="16" fill="none" xmlns="http://www.w3.org/2000/svg"><path fill-rule="evenodd" clip-rule="evenodd" d="M2.757 3.746C1.36 3.431.302 2.171 0 .91L17.26.871v.04a3.944 3.944 0 01-2.758 2.835h-4.305l-.227.08v11.303H7.29V3.825l-.227-.079H2.757zm24.063.121h10.287c1.448-.275 2.515-1.61 2.782-2.867H24c.305 1.257 1.372 2.553 2.82 2.867zm76.585 0H93.117c-1.41-.314-2.477-1.61-2.781-2.867h15.85c-.305 1.257-1.334 2.592-2.781 2.867zm-12.65 11.391V6.656h15.088v8.602h-2.667V9.523h-9.754v5.735h-2.667zm-8.116 0c1.334-.59 2.058-1.61 2.362-2.789H73V1.04h-2.705v14.22h12.345zM59.816 3.828H50.29l.038 2.828h12.345v8.602H46.861c.648-1.375 1.943-2.435 3.468-2.867h9.677V9.445H47.661V1.039H62.75c-.305 1.218-1.486 2.357-2.934 2.79zM37.107 9.484H26.82c-1.448-.314-2.515-1.61-2.82-2.867h15.889c-.267 1.257-1.334 2.592-2.782 2.867zM26.82 15.258h10.287c1.448-.275 2.515-1.61 2.782-2.867H24c.305 1.257 1.372 2.592 2.82 2.867z" fill="#fff"/></svg>